<svg width="15" height="15" viewBox="0 0 15 15" fill="none" xmlns="http://www.w3.org/2000/svg">
<path d="M5.46708 13.5938H4.6872C4.60884 13.5937 4.53173 13.5741 4.46293 13.5365C4.39414 13.499 4.33584 13.4449 4.29338 13.379C4.25092 13.3131 4.22565 13.2377 4.21988 13.1595C4.21411 13.0814 4.22802 13.003 4.26034 12.9316L6.14882 8.76416L3.31318 8.70117L2.279 9.9542C2.08183 10.2021 1.9245 10.3125 1.52314 10.3125H0.998136C0.915013 10.3152 0.832469 10.2978 0.757501 10.2618C0.682532 10.2258 0.617348 10.1722 0.567472 10.1057C0.497746 10.0116 0.429191 9.85225 0.495988 9.6249L1.07665 7.54482C1.08105 7.5293 1.08632 7.51377 1.09218 7.49854C1.09247 7.49708 1.09247 7.49559 1.09218 7.49414C1.08613 7.47892 1.08094 7.46337 1.07665 7.44756L0.495402 5.3543C0.432414 5.13135 0.501261 4.97549 0.570402 4.88379C0.61683 4.82218 0.677066 4.77233 0.746267 4.73824C0.815467 4.70415 0.891701 4.68677 0.96884 4.6875H1.52314C1.82284 4.6875 2.11376 4.82197 2.28486 5.03906L3.29765 6.271L6.14882 6.22881L4.26093 2.06865C4.22856 1.9973 4.21459 1.91897 4.2203 1.84083C4.22602 1.76269 4.25122 1.68722 4.29362 1.62133C4.33602 1.55545 4.39426 1.50124 4.46302 1.46367C4.53177 1.42609 4.60885 1.40635 4.6872 1.40625H5.47558C5.58557 1.40846 5.69364 1.43542 5.79178 1.48512C5.88992 1.53483 5.97561 1.606 6.04247 1.69336L9.70605 6.14648L11.3985 6.10195C11.5225 6.09521 11.8658 6.09287 11.9452 6.09287C13.5642 6.09375 14.5309 6.61934 14.5309 7.5C14.5309 7.77715 14.4202 8.29102 13.6793 8.61797C13.2419 8.81133 12.6583 8.90918 11.9446 8.90918C11.8661 8.90918 11.5236 8.90684 11.3979 8.9001L9.70575 8.85498L6.0331 13.3081C5.96618 13.3951 5.88057 13.4659 5.7826 13.5153C5.68463 13.5648 5.5768 13.5916 5.46708 13.5938Z" fill="#7854B8"/>
</svg>
