<svg width="25" height="24" viewBox="0 0 25 24" fill="none" xmlns="http://www.w3.org/2000/svg">
<path d="M9.14757 21.6898L11.5078 19.7298C11.8623 19.4298 12.4498 19.4298 12.8044 19.7298L15.1645 21.6898C15.7115 21.9598 16.3801 21.6898 16.5827 21.1098L17.0284 19.7798C17.1398 19.4598 17.0284 18.9898 16.7853 18.7498L14.4859 16.4698C14.3137 16.3098 14.182 15.9898 14.182 15.7598V12.9098C14.182 12.4898 14.496 12.2898 14.891 12.4498L19.8647 14.5698C20.6447 14.8998 21.2828 14.4898 21.2828 13.6498V12.3598C21.2828 11.6898 20.7763 10.9198 20.1483 10.6598L14.4859 8.24977C14.3238 8.17977 14.182 7.96977 14.182 7.78977V4.78977C14.182 3.84977 13.483 2.73977 12.6321 2.30977C12.3283 2.15977 11.9737 2.15977 11.6698 2.30977C10.819 2.73977 10.12 3.85977 10.12 4.79977V7.79977C10.12 7.97977 9.9782 8.18977 9.81612 8.25977L4.16381 10.6698C3.53578 10.9198 3.0293 11.6898 3.0293 12.3598V13.6498C3.0293 14.4898 3.66746 14.8998 4.44744 14.5698L9.42107 12.4498C9.80599 12.2798 10.1301 12.4898 10.1301 12.9098V15.7598C10.1301 15.9898 9.99846 16.3098 9.83638 16.4698L7.53696 18.7498C7.29385 18.9898 7.18243 19.4498 7.29385 19.7798L7.73956 21.1098C7.92189 21.6898 8.59044 21.9698 9.14757 21.6898Z" stroke="#7854B8" stroke-width="1.5" stroke-linecap="round" stroke-linejoin="round"/>
</svg>
