<svg width="34" height="34" viewBox="0 0 34 34" fill="none" xmlns="http://www.w3.org/2000/svg">
<rect width="34" height="34" rx="17" fill="#7854B8"/>
<path d="M9.12964 14.9431C9.12964 13.3929 10.2238 12.0582 11.7439 11.7542L11.8508 11.7328C12.6281 11.5774 13.3119 11.1195 13.7516 10.4599C14.3059 9.62836 15.2392 9.12891 16.2385 9.12891L17.7615 9.1289C18.7608 9.1289 19.6941 9.62836 20.2484 10.4599C20.6882 11.1195 21.3719 11.5774 22.1492 11.7328L22.2561 11.7542C23.7762 12.0582 24.8704 13.3929 24.8704 14.9431L24.8704 18.5733C24.8704 20.7773 24.8704 21.8792 24.4415 22.721C24.0642 23.4614 23.4622 24.0635 22.7217 24.4407C21.88 24.8696 20.778 24.8696 18.5741 24.8696L15.4259 24.8696C13.222 24.8696 12.1201 24.8696 11.2783 24.4407C10.5378 24.0635 9.93583 23.4615 9.55855 22.721C9.12964 21.8792 9.12964 20.7773 9.12964 18.5733L9.12964 14.9431Z" stroke="white" stroke-width="1.18056" stroke-linecap="round" stroke-linejoin="round"/>
<path d="M20.1482 17.7863C20.1482 19.525 18.7387 20.9345 17 20.9345C15.2613 20.9345 13.8519 19.525 13.8519 17.7863C13.8519 16.0476 15.2613 14.6382 17 14.6382C18.7387 14.6382 20.1482 16.0476 20.1482 17.7863Z" stroke="white" stroke-width="1.18056" stroke-linecap="round" stroke-linejoin="round"/>
</svg>
