<svg width="34" height="34" viewBox="0 0 34 34" fill="none" xmlns="http://www.w3.org/2000/svg">
<rect width="34" height="34" rx="16.6222" fill="#7854B8" fill-opacity="0.8"/>
<path d="M14.4993 25.3327H19.4993C23.666 25.3327 25.3327 23.666 25.3327 19.4993V14.4993C25.3327 10.3327 23.666 8.66602 19.4993 8.66602H14.4993C10.3327 8.66602 8.66602 10.3327 8.66602 14.4993V19.4993C8.66602 23.666 10.3327 25.3327 14.4993 25.3327Z" stroke="white" stroke-linecap="round" stroke-linejoin="round"/>
<path d="M14.5007 15.3333C15.4211 15.3333 16.1673 14.5871 16.1673 13.6667C16.1673 12.7462 15.4211 12 14.5007 12C13.5802 12 12.834 12.7462 12.834 13.6667C12.834 14.5871 13.5802 15.3333 14.5007 15.3333Z" stroke="white" stroke-linecap="round" stroke-linejoin="round"/>
<path d="M9.22461 22.7918L13.3329 20.0335C13.9913 19.5918 14.9413 19.6418 15.5329 20.1501L15.8079 20.3918C16.4579 20.9501 17.5079 20.9501 18.1579 20.3918L21.6246 17.4168C22.2746 16.8585 23.3246 16.8585 23.9746 17.4168L25.3329 18.5835" stroke="white" stroke-linecap="round" stroke-linejoin="round"/>
</svg>
