<svg width="16" height="16" viewBox="0 0 16 16" fill="none" xmlns="http://www.w3.org/2000/svg">
<path d="M9.152 14.1573C10.2187 14.1573 11.136 13.9101 11.904 13.4157C12.6862 12.9213 13.2836 12.2172 13.696 11.3034H16C15.4596 12.8015 14.5849 13.9625 13.376 14.7865C12.1671 15.5955 10.7591 16 9.152 16C7.47378 16 5.99467 15.5131 4.71467 14.5393C3.43467 13.5655 2.55289 12.2622 2.06933 10.6292H0V9.19101H1.77067C1.728 8.8015 1.70667 8.41199 1.70667 8.02247C1.70667 7.64794 1.728 7.2809 1.77067 6.92135H0V5.50562H2.048C2.36089 4.41198 2.85867 3.45318 3.54133 2.62921C4.23822 1.79026 5.06311 1.14607 6.016 0.69663C6.98311 0.23221 8.02845 0 9.152 0C10.7591 0 12.1671 0.411985 13.376 1.23596C14.5849 2.05993 15.4596 3.22846 16 4.74157H13.696C13.2836 3.81273 12.6933 3.10112 11.9253 2.60674C11.1573 2.11236 10.2329 1.86517 9.152 1.86517C7.95733 1.86517 6.912 2.18727 6.016 2.83146C5.13422 3.47566 4.50133 4.36704 4.11733 5.50562H9.152V6.92135H3.776C3.73333 7.2809 3.712 7.64794 3.712 8.02247C3.712 8.45693 3.74044 8.84644 3.79733 9.19101H9.152V10.6292H4.13867C4.55111 11.7378 5.19822 12.6067 6.08 13.236C6.976 13.8502 8 14.1573 9.152 14.1573Z" fill="#7854B8"/>
</svg>
