<svg width="24" height="24" viewBox="0 0 24 24" fill="none" xmlns="http://www.w3.org/2000/svg">
<path d="M8.39367 1.84335C9.23037 1.35796 10.2686 1.38932 11.0747 1.92406L15.7994 5.05853L18.5113 3.48529C19.9043 2.6772 21.6838 3.15822 22.4858 4.55404C23.2866 5.9478 22.8128 7.7316 21.422 8.53845L18.2032 10.4058C17.8868 10.5893 17.4841 10.5179 17.2502 10.2366C16.9533 9.8796 17.0488 9.34129 17.4505 9.1083L20.6693 7.24099C21.3428 6.85031 21.5762 5.98181 21.1852 5.30134C20.7954 4.62296 19.9353 4.39331 19.264 4.78275L16.1492 6.58973C15.9025 6.73286 15.5959 6.72364 15.3582 6.56595L10.2454 3.174C9.91459 2.95453 9.48946 2.94179 9.14637 3.14083L8.06798 3.76643L11.6808 8.17613C11.8202 8.34619 11.8779 8.56886 11.8386 8.78524C11.7994 9.00158 11.6672 9.18983 11.477 9.30015L8.05073 11.2878C7.89117 11.3804 7.70311 11.4109 7.52247 11.3735L3.56098 10.554L3.14016 10.7982L7.59346 14.8266L14.1604 11.0169C14.4768 10.8334 14.8795 10.9049 15.1134 11.1861C15.4103 11.5431 15.3148 12.0814 14.9131 12.3144L7.87264 16.3988C7.59053 16.5624 7.23499 16.525 6.99316 16.3062L1.37187 11.2212C1.19426 11.0606 1.10406 10.8248 1.12912 10.5866C1.15418 10.3484 1.29149 10.1365 1.49866 10.0163L3.05606 9.1128C3.21562 9.02025 3.4037 8.98973 3.58434 9.02711L7.54579 9.8466L9.96192 8.44496L6.34909 4.0353C6.20974 3.8652 6.15203 3.64253 6.19126 3.42617C6.23048 3.20981 6.36267 3.02157 6.55287 2.91123L8.39367 1.84335Z" fill="#7854B8"/>
<path d="M0.75 18.375C0.75 17.9608 1.08579 17.625 1.5 17.625H10.5C10.9142 17.625 11.25 17.9608 11.25 18.375C11.25 18.7892 10.9142 19.125 10.5 19.125H1.5C1.08579 19.125 0.75 18.7892 0.75 18.375Z" fill="#7854B8"/>
<path d="M19.125 15.9375C19.125 15.5233 18.7892 15.1875 18.375 15.1875C17.9608 15.1875 17.625 15.5233 17.625 15.9375V17.625C17.625 17.8239 17.704 18.0147 17.8447 18.1553L18.9697 19.2803C19.2626 19.5732 19.7374 19.5732 20.0303 19.2803C20.3232 18.9875 20.3232 18.5126 20.0303 18.2197L19.125 17.3144V15.9375Z" fill="#7854B8"/>
<path fill-rule="evenodd" clip-rule="evenodd" d="M18.375 12.75C15.6826 12.75 13.5 14.9326 13.5 17.625C13.5 20.3174 15.6826 22.5 18.375 22.5C21.0674 22.5 23.25 20.3174 23.25 17.625C23.25 14.9326 21.0674 12.75 18.375 12.75ZM15 17.625C15 15.761 16.511 14.25 18.375 14.25C20.239 14.25 21.75 15.761 21.75 17.625C21.75 19.489 20.239 21 18.375 21C16.511 21 15 19.489 15 17.625Z" fill="#7854B8"/>
</svg>
