<svg width="50" height="50" viewBox="0 0 50 50" fill="none" xmlns="http://www.w3.org/2000/svg">
<circle cx="25" cy="25" r="25" fill="#7854B8" fill-opacity="0.1"/>
<path d="M22.0302 34.6898L24.3602 32.7298C24.7102 32.4298 25.2902 32.4298 25.6402 32.7298L27.9702 34.6898C28.5102 34.9598 29.1702 34.6898 29.3702 34.1098L29.8102 32.7798C29.9202 32.4598 29.8102 31.9898 29.5702 31.7498L27.3002 29.4698C27.1302 29.3098 27.0002 28.9898 27.0002 28.7598V25.9098C27.0002 25.4898 27.3102 25.2898 27.7002 25.4498L32.6102 27.5698C33.3802 27.8998 34.0102 27.4898 34.0102 26.6498V25.3598C34.0102 24.6898 33.5102 23.9198 32.8902 23.6598L27.3002 21.2498C27.1402 21.1798 27.0002 20.9698 27.0002 20.7898V17.7898C27.0002 16.8498 26.3102 15.7398 25.4702 15.3098C25.1702 15.1598 24.8202 15.1598 24.5202 15.3098C23.6802 15.7398 22.9902 16.8598 22.9902 17.7998V20.7998C22.9902 20.9798 22.8502 21.1898 22.6902 21.2598L17.1102 23.6698C16.4902 23.9198 15.9902 24.6898 15.9902 25.3598V26.6498C15.9902 27.4898 16.6202 27.8998 17.3902 27.5698L22.3002 25.4498C22.6802 25.2798 23.0002 25.4898 23.0002 25.9098V28.7598C23.0002 28.9898 22.8702 29.3098 22.7102 29.4698L20.4402 31.7498C20.2002 31.9898 20.0902 32.4498 20.2002 32.7798L20.6402 34.1098C20.8202 34.6898 21.4802 34.9698 22.0302 34.6898Z" stroke="#7854B8" stroke-width="1.5" stroke-linecap="round" stroke-linejoin="round"/>
</svg>
