<svg width="34" height="34" viewBox="0 0 34 34" fill="none" xmlns="http://www.w3.org/2000/svg">
<path d="M12.219 25.9243L11.9573 22.8908C11.922 22.4312 11.5118 22.0211 11.0522 21.9857L8.01874 21.7241C7.44598 21.5332 7.17021 20.8756 7.43891 20.324L8.06824 19.0725C8.21673 18.7684 8.62685 18.5138 8.96626 18.5138L12.1836 18.5068C12.4169 18.5138 12.7351 18.3795 12.8978 18.2169L14.913 16.2016C15.21 15.9046 15.1322 15.544 14.7433 15.3814L9.77236 13.4085C8.99455 13.0974 8.83898 12.362 9.43295 11.768L10.3451 10.8559C10.8189 10.3821 11.7169 10.1912 12.3392 10.4458L17.996 12.6944C18.1586 12.758 18.4061 12.7085 18.5334 12.5812L20.6547 10.4599C21.3194 9.79522 22.5922 9.49823 23.4902 9.78815C23.8084 9.89421 24.0559 10.1417 24.162 10.4599C24.4519 11.3579 24.1478 12.6378 23.4832 13.3025L21.3618 15.4238C21.2346 15.5511 21.1851 15.7986 21.2487 15.9612L23.4902 21.611C23.7519 22.2262 23.5609 23.1242 23.0872 23.5979L22.175 24.5101C21.581 25.1041 20.8457 24.9485 20.5345 24.1707L18.5617 19.1997C18.4132 18.8108 18.0384 18.733 17.7415 19.03L15.7262 21.0453C15.5636 21.2079 15.4292 21.5261 15.4292 21.7524L15.4221 24.9697C15.4221 25.3091 15.1747 25.7122 14.8635 25.8678L13.612 26.4971C13.0746 26.7799 12.4099 26.5112 12.219 25.9243Z" stroke="#7854B8" stroke-width="1.5" stroke-linecap="round" stroke-linejoin="round"/>
</svg>
