<svg width="24" height="24" viewBox="0 0 24 24" fill="none" xmlns="http://www.w3.org/2000/svg">
<path fill-rule="evenodd" clip-rule="evenodd" d="M11.25 5.25C8.55757 5.25 6.375 7.43261 6.375 10.125C6.375 12.8174 8.55757 15 11.25 15C13.9424 15 16.125 12.8174 16.125 10.125C16.125 7.43261 13.9424 5.25 11.25 5.25ZM4.875 10.125C4.875 6.60419 7.7292 3.75 11.25 3.75C14.7708 3.75 17.625 6.60419 17.625 10.125C17.625 13.6458 14.7708 16.5 11.25 16.5C7.7292 16.5 4.875 13.6458 4.875 10.125Z" fill="#7854B8"/>
<path fill-rule="evenodd" clip-rule="evenodd" d="M11.25 15C11.6642 15 12 15.3358 12 15.75V21.75C12 22.1642 11.6642 22.5 11.25 22.5C10.8358 22.5 10.5 22.1642 10.5 21.75V15.75C10.5 15.3358 10.8358 15 11.25 15Z" fill="#7854B8"/>
<path fill-rule="evenodd" clip-rule="evenodd" d="M7.5 19.125C7.5 18.7108 7.83578 18.375 8.25 18.375H14.25C14.6642 18.375 15 18.7108 15 19.125C15 19.5392 14.6642 19.875 14.25 19.875H8.25C7.83578 19.875 7.5 19.5392 7.5 19.125Z" fill="#7854B8"/>
<path fill-rule="evenodd" clip-rule="evenodd" d="M15 2.25C15 1.83579 15.3358 1.5 15.75 1.5H19.5C19.9142 1.5 20.25 1.83579 20.25 2.25V6C20.25 6.41421 19.9142 6.75 19.5 6.75C19.0858 6.75 18.75 6.41421 18.75 6V3H15.75C15.3358 3 15 2.66421 15 2.25Z" fill="#7854B8"/>
<path fill-rule="evenodd" clip-rule="evenodd" d="M20.0299 1.71967C20.3228 2.01257 20.3228 2.48743 20.0299 2.78033L15.9424 6.86783C15.6495 7.16072 15.1746 7.16072 14.8818 6.86783C14.5889 6.57493 14.5889 6.10006 14.8818 5.80717L18.9693 1.71967C19.2621 1.42678 19.737 1.42678 20.0299 1.71967Z" fill="#7854B8"/>
</svg>
