<svg width="19" height="19" viewBox="0 0 19 19" fill="none" xmlns="http://www.w3.org/2000/svg">
<path d="M14.0617 3.17167C13.8441 3.17167 13.6314 3.23618 13.4505 3.35705C13.2696 3.47792 13.1287 3.64972 13.0454 3.85071C12.9621 4.05171 12.9404 4.27289 12.9828 4.48627C13.0252 4.69965 13.13 4.89565 13.2838 5.04948C13.4377 5.20332 13.6337 5.30809 13.8471 5.35053C14.0604 5.39297 14.2816 5.37119 14.4826 5.28793C14.6836 5.20468 14.8554 5.06369 14.9763 4.88279C15.0972 4.7019 15.1617 4.48923 15.1617 4.27167C15.1617 3.97993 15.0458 3.70014 14.8395 3.49385C14.6332 3.28756 14.3534 3.17167 14.0617 3.17167ZM18.2783 5.39C18.2603 4.62946 18.1179 3.877 17.8567 3.1625C17.6246 2.55067 17.2617 1.99692 16.7933 1.54C16.3394 1.07014 15.7846 0.709662 15.1708 0.485833C14.4583 0.216481 13.7049 0.0707758 12.9433 0.0549999C11.9717 -5.12227e-08 11.66 0 9.16667 0C6.67333 0 6.36167 -5.12227e-08 5.39 0.0549999C4.62839 0.0707758 3.87506 0.216481 3.1625 0.485833C2.55015 0.712482 1.99592 1.07258 1.54 1.54C1.07014 1.99391 0.709662 2.54874 0.485833 3.1625C0.216481 3.87506 0.0707758 4.62839 0.0549999 5.39C-5.12227e-08 6.36167 0 6.67333 0 9.16667C0 11.66 -5.12227e-08 11.9717 0.0549999 12.9433C0.0707758 13.7049 0.216481 14.4583 0.485833 15.1708C0.709662 15.7846 1.07014 16.3394 1.54 16.7933C1.99592 17.2608 2.55015 17.6209 3.1625 17.8475C3.87506 18.1169 4.62839 18.2626 5.39 18.2783C6.36167 18.3333 6.67333 18.3333 9.16667 18.3333C11.66 18.3333 11.9717 18.3333 12.9433 18.2783C13.7049 18.2626 14.4583 18.1169 15.1708 17.8475C15.7846 17.6237 16.3394 17.2632 16.7933 16.7933C17.2629 16.3374 17.626 15.7833 17.8567 15.1708C18.1179 14.4563 18.2603 13.7039 18.2783 12.9433C18.2783 11.9717 18.3333 11.66 18.3333 9.16667C18.3333 6.67333 18.3333 6.36167 18.2783 5.39ZM16.6283 12.8333C16.6218 13.4152 16.5164 13.9918 16.3167 14.5383C16.1703 14.9373 15.9352 15.2977 15.6292 15.5925C15.3317 15.8952 14.972 16.1298 14.575 16.28C14.0284 16.4798 13.4519 16.5852 12.87 16.5917C11.9533 16.6375 11.6142 16.6467 9.20333 16.6467C6.7925 16.6467 6.45333 16.6467 5.53667 16.5917C4.93245 16.6035 4.33075 16.5105 3.75833 16.3167C3.37901 16.1584 3.03591 15.9245 2.75 15.6292C2.44575 15.3347 2.21361 14.9739 2.07167 14.575C1.84713 14.0208 1.72297 13.431 1.705 12.8333C1.705 11.9167 1.65 11.5775 1.65 9.16667C1.65 6.75583 1.65 6.41667 1.705 5.5C1.70834 4.90506 1.81696 4.31541 2.02583 3.75833C2.18721 3.37142 2.43491 3.02652 2.75 2.75C3.02768 2.43392 3.37208 2.18345 3.75833 2.01667C4.31695 1.81452 4.90595 1.70912 5.5 1.705C6.41667 1.705 6.75583 1.65 9.16667 1.65C11.5775 1.65 11.9167 1.65 12.8333 1.705C13.4152 1.7115 13.9918 1.81689 14.5383 2.01667C14.9549 2.17126 15.3288 2.42261 15.6292 2.75C15.9287 3.03235 16.1632 3.3764 16.3167 3.75833C16.5206 4.31647 16.626 4.90578 16.6283 5.5C16.6742 6.41667 16.6833 6.75583 16.6833 9.16667C16.6833 11.5775 16.6742 11.9167 16.6283 12.8333ZM9.16667 4.46417C8.23699 4.46598 7.32872 4.74332 6.5566 5.26113C5.78448 5.77895 5.18318 6.51401 4.82866 7.37344C4.47415 8.23287 4.38233 9.17809 4.56481 10.0897C4.74729 11.0013 5.19588 11.8383 5.8539 12.4951C6.51192 13.1518 7.34984 13.5988 8.26179 13.7795C9.17373 13.9602 10.1188 13.8665 10.9775 13.5103C11.8362 13.1541 12.5701 12.5514 13.0865 11.7783C13.6028 11.0052 13.8783 10.0963 13.8783 9.16667C13.8795 8.54801 13.7584 7.93522 13.522 7.36354C13.2855 6.79186 12.9383 6.27258 12.5005 5.83555C12.0626 5.39852 11.5426 5.05237 10.9705 4.81702C10.3983 4.58167 9.78532 4.46175 9.16667 4.46417ZM9.16667 12.2192C8.56294 12.2192 7.97277 12.0401 7.47079 11.7047C6.96881 11.3693 6.57756 10.8926 6.34652 10.3348C6.11549 9.77704 6.05504 9.16328 6.17282 8.57115C6.2906 7.97903 6.58132 7.43512 7.00822 7.00822C7.43512 6.58132 7.97903 6.2906 8.57115 6.17282C9.16328 6.05504 9.77704 6.11549 10.3348 6.34652C10.8926 6.57756 11.3693 6.96881 11.7047 7.47079C12.0401 7.97277 12.2192 8.56294 12.2192 9.16667C12.2192 9.56753 12.1402 9.96446 11.9868 10.3348C11.8334 10.7052 11.6086 11.0417 11.3251 11.3251C11.0417 11.6086 10.7052 11.8334 10.3348 11.9868C9.96446 12.1402 9.56753 12.2192 9.16667 12.2192Z" fill="#314F45"/>
</svg>
