<svg width="120" height="120" viewBox="0 0 120 120" fill="none" xmlns="http://www.w3.org/2000/svg">
<rect width="120" height="120" rx="60" fill="#F6F6F7"/>
<path d="M51.0729 60.1523C51.0729 59.264 51.8095 58.5273 52.6979 58.5273H64.5712V40.1973C64.5495 39.1573 63.7262 38.334 62.6862 38.334C49.9245 38.334 41.0195 47.239 41.0195 60.0007C41.0195 72.7623 49.9245 81.6673 62.6862 81.6673C63.7045 81.6673 64.5495 80.844 64.5495 79.804V61.7557H52.6979C51.7879 61.7773 51.0729 61.0407 51.0729 60.1523Z" fill="#7854B8"/>
<path d="M78.5041 59.0037L72.3508 52.8287C71.7224 52.2003 70.6824 52.2003 70.0541 52.8287C69.4258 53.457 69.4258 54.497 70.0541 55.1253L73.4341 58.5053H64.5508V61.7553H73.4124L70.0324 65.1353C69.4041 65.7637 69.4041 66.8037 70.0324 67.432C70.3574 67.757 70.7691 67.9087 71.1808 67.9087C71.5924 67.9087 72.0041 67.757 72.3291 67.432L78.4824 61.257C79.1324 60.6503 79.1324 59.632 78.5041 59.0037Z" fill="#7854B8"/>
</svg>
