<svg width="92" height="92" viewBox="0 0 92 92" fill="none" xmlns="http://www.w3.org/2000/svg">
<rect x="0.383333" y="0.383333" width="91.2333" height="91.2333" rx="45.6167" fill="white"/>
<rect x="0.383333" y="0.383333" width="91.2333" height="91.2333" rx="45.6167" stroke="#F5F5F5" stroke-width="0.766667"/>
<path d="M48.8842 31.8504L51.8175 37.7171C52.2175 38.5337 53.2842 39.3171 54.1842 39.4671L59.5008 40.3504C62.9008 40.9171 63.7008 43.3837 61.2508 45.8171L57.1175 49.9504C56.4175 50.6504 56.0342 52.0004 56.2508 52.9671L57.4342 58.0837C58.3675 62.1337 56.2175 63.7004 52.6342 61.5837L47.6508 58.6337C46.7508 58.1004 45.2675 58.1004 44.3508 58.6337L39.3675 61.5837C35.8008 63.7004 33.6342 62.1171 34.5675 58.0837L35.7508 52.9671C35.9675 52.0004 35.5842 50.6504 34.8842 49.9504L30.7508 45.8171C28.3175 43.3837 29.1008 40.9171 32.5008 40.3504L37.8175 39.4671C38.7008 39.3171 39.7675 38.5337 40.1675 37.7171L43.1008 31.8504C44.7008 28.6671 47.3008 28.6671 48.8842 31.8504Z" stroke="#7854B8" stroke-width="2" stroke-linecap="round" stroke-linejoin="round"/>
</svg>
