<svg width="50" height="50" viewBox="0 0 50 50" fill="none" xmlns="http://www.w3.org/2000/svg">
<circle cx="25" cy="25" r="25" fill="#7854B8" fill-opacity="0.1"/>
<path d="M26.7309 16.5101L28.4909 20.0301C28.7309 20.5201 29.3709 20.9901 29.9109 21.0801L33.1009 21.6101C35.1409 21.9501 35.6209 23.4301 34.1509 24.8901L31.6709 27.3701C31.2509 27.7901 31.0209 28.6001 31.1509 29.1801L31.8609 32.2501C32.4209 34.6801 31.1309 35.6201 28.9809 34.3501L25.9909 32.5801C25.4509 32.2601 24.5609 32.2601 24.0109 32.5801L21.0209 34.3501C18.8809 35.6201 17.5809 34.6701 18.1409 32.2501L18.8509 29.1801C18.9809 28.6001 18.7509 27.7901 18.3309 27.3701L15.8509 24.8901C14.3909 23.4301 14.8609 21.9501 16.9009 21.6101L20.0909 21.0801C20.6209 20.9901 21.2609 20.5201 21.5009 20.0301L23.2609 16.5101C24.2209 14.6001 25.7809 14.6001 26.7309 16.5101Z" stroke="#7854B8" stroke-width="1.5" stroke-linecap="round" stroke-linejoin="round"/>
</svg>
