<svg width="48" height="48" viewBox="0 0 48 48" fill="none" xmlns="http://www.w3.org/2000/svg">
<rect width="48" height="48" rx="24" fill="#7854B8"/>
<path d="M27.4496 16.4667L19.9246 18.9667C14.8663 20.6584 14.8663 23.4167 19.9246 25.1L22.1579 25.8417L22.8996 28.075C24.5829 33.1334 27.3496 33.1334 29.0329 28.075L31.5413 20.5584C32.6579 17.1834 30.8246 15.3417 27.4496 16.4667ZM27.7163 20.95L24.5496 24.1334C24.4246 24.2584 24.2663 24.3167 24.1079 24.3167C23.9496 24.3167 23.7913 24.2584 23.6663 24.1334C23.4246 23.8917 23.4246 23.4917 23.6663 23.25L26.8329 20.0667C27.0746 19.825 27.4746 19.825 27.7163 20.0667C27.9579 20.3084 27.9579 20.7084 27.7163 20.95Z" fill="white"/>
</svg>
