<svg width="30" height="30" viewBox="0 0 30 30" fill="none" xmlns="http://www.w3.org/2000/svg">
<path d="M16.7702 4.28691L18.9201 8.58658C19.2132 9.18511 19.995 9.75922 20.6546 9.86915L24.5512 10.5165C27.043 10.9319 27.6294 12.7397 25.8337 14.5231L22.8044 17.5524C22.2914 18.0654 22.0105 19.0548 22.1693 19.7633L23.0365 23.5133C23.7206 26.4815 22.1448 27.6297 19.5186 26.0784L15.8663 23.9164C15.2067 23.5255 14.1196 23.5255 13.4478 23.9164L9.79548 26.0784C7.18147 27.6297 5.59352 26.4693 6.27756 23.5133L7.14482 19.7633C7.30362 19.0548 7.02267 18.0654 6.50964 17.5524L3.48033 14.5231C1.69694 12.7397 2.27105 10.9319 4.7629 10.5165L8.65948 9.86915C9.30688 9.75922 10.0886 9.18511 10.3818 8.58658L12.5316 4.28691C13.7043 1.95384 15.6098 1.95384 16.7702 4.28691Z" fill="#FFCC00" stroke="#FFCC00" stroke-width="1.83225" stroke-linecap="round" stroke-linejoin="round"/>
</svg>
