<svg width="34" height="34" viewBox="0 0 34 34" fill="none" xmlns="http://www.w3.org/2000/svg">
<path d="M12.219 8.0168L11.9573 11.0503C11.922 11.5099 11.5118 11.92 11.0522 11.9554L8.01874 12.217C7.44598 12.4079 7.17021 13.0655 7.43891 13.6171L8.06824 14.8687C8.21673 15.1727 8.62685 15.4273 8.96626 15.4273L12.1836 15.4344C12.4169 15.4273 12.7351 15.5616 12.8978 15.7243L14.913 17.7395C15.21 18.0365 15.1322 18.3971 14.7433 18.5598L9.77236 20.5326C8.99455 20.8437 8.83898 21.5791 9.43295 22.1731L10.3451 23.0852C10.8189 23.559 11.7169 23.7499 12.3392 23.4954L17.996 21.2468C18.1586 21.1831 18.4061 21.2326 18.5334 21.3599L20.6547 23.4812C21.3194 24.1459 22.5922 24.4429 23.4902 24.153C23.8084 24.0469 24.0559 23.7994 24.162 23.4812C24.4519 22.5832 24.1478 21.3033 23.4832 20.6387L21.3618 18.5173C21.2346 18.3901 21.1851 18.1426 21.2487 17.9799L23.4902 12.3302C23.7519 11.715 23.5609 10.8169 23.0872 10.3432L22.175 9.43102C21.581 8.83705 20.8457 8.99261 20.5345 9.77043L18.5617 14.7414C18.4132 15.1303 18.0384 15.2081 17.7415 14.9111L15.7262 12.8958C15.5636 12.7332 15.4292 12.415 15.4292 12.1887L15.4221 8.9714C15.4221 8.63199 15.1747 8.22893 14.8635 8.07337L13.612 7.44405C13.0746 7.1612 12.4099 7.4299 12.219 8.0168Z" stroke="#7854B8" stroke-width="1.5" stroke-linecap="round" stroke-linejoin="round"/>
</svg>
