<svg width="208" height="208" viewBox="0 0 208 208" fill="none" xmlns="http://www.w3.org/2000/svg">
<g filter="url(#filter0_d_2263_2506)">
<circle cx="103.8" cy="103.801" r="60" fill="#512D79"/>
<circle cx="103.8" cy="103.801" r="62" stroke="white" stroke-width="4"/>
</g>
<path d="M99.2569 126.237L95.7469 138.801H92.7769L90.4189 129.855L87.9529 138.801L85.0009 138.819L81.6169 126.237H84.3169L86.5309 135.993L89.0869 126.237H91.8949L94.3069 135.939L96.5389 126.237H99.2569ZM102.18 127.641C101.736 127.641 101.364 127.503 101.064 127.227C100.776 126.939 100.632 126.585 100.632 126.165C100.632 125.745 100.776 125.397 101.064 125.121C101.364 124.833 101.736 124.689 102.18 124.689C102.624 124.689 102.99 124.833 103.278 125.121C103.578 125.397 103.728 125.745 103.728 126.165C103.728 126.585 103.578 126.939 103.278 127.227C102.99 127.503 102.624 127.641 102.18 127.641ZM103.422 128.829V138.801H100.902V128.829H103.422ZM109.728 138.963C108.912 138.963 108.18 138.819 107.532 138.531C106.884 138.231 106.368 137.829 105.984 137.325C105.612 136.821 105.408 136.263 105.372 135.651H107.91C107.958 136.035 108.144 136.353 108.468 136.605C108.804 136.857 109.218 136.983 109.71 136.983C110.19 136.983 110.562 136.887 110.826 136.695C111.102 136.503 111.24 136.257 111.24 135.957C111.24 135.633 111.072 135.393 110.736 135.237C110.412 135.069 109.89 134.889 109.17 134.697C108.426 134.517 107.814 134.331 107.334 134.139C106.866 133.947 106.458 133.653 106.11 133.257C105.774 132.861 105.606 132.327 105.606 131.655C105.606 131.103 105.762 130.599 106.074 130.143C106.398 129.687 106.854 129.327 107.442 129.063C108.042 128.799 108.744 128.667 109.548 128.667C110.736 128.667 111.684 128.967 112.392 129.567C113.1 130.155 113.49 130.953 113.562 131.961H111.15C111.114 131.565 110.946 131.253 110.646 131.025C110.358 130.785 109.968 130.665 109.476 130.665C109.02 130.665 108.666 130.749 108.414 130.917C108.174 131.085 108.054 131.319 108.054 131.619C108.054 131.955 108.222 132.213 108.558 132.393C108.894 132.561 109.416 132.735 110.124 132.915C110.844 133.095 111.438 133.281 111.906 133.473C112.374 133.665 112.776 133.965 113.112 134.373C113.46 134.769 113.64 135.297 113.652 135.957C113.652 136.533 113.49 137.049 113.166 137.505C112.854 137.961 112.398 138.321 111.798 138.585C111.21 138.837 110.52 138.963 109.728 138.963ZM121.337 128.685C122.093 128.685 122.765 128.853 123.353 129.189C123.941 129.513 124.397 129.999 124.721 130.647C125.057 131.283 125.225 132.051 125.225 132.951V138.801H122.705V133.293C122.705 132.501 122.507 131.895 122.111 131.475C121.715 131.043 121.175 130.827 120.491 130.827C119.795 130.827 119.243 131.043 118.835 131.475C118.439 131.895 118.241 132.501 118.241 133.293V138.801H115.721V125.481H118.241V130.071C118.565 129.639 118.997 129.303 119.537 129.063C120.077 128.811 120.677 128.685 121.337 128.685Z" fill="white"/>
<path d="M97.3651 108.796L102.413 104.55C103.172 103.9 104.428 103.9 105.187 104.55L110.235 108.796C111.405 109.381 112.835 108.796 113.268 107.54L114.222 104.658C114.46 103.965 114.222 102.946 113.702 102.426L108.783 97.4862C108.415 97.1396 108.133 96.4463 108.133 95.9479V89.7729C108.133 88.8629 108.805 88.4296 109.65 88.7762L120.288 93.3696C121.957 94.0846 123.322 93.1962 123.322 91.3762V88.5812C123.322 87.1296 122.238 85.4612 120.895 84.8979L108.783 79.6763C108.437 79.5246 108.133 79.0696 108.133 78.6796V72.1796C108.133 70.1429 106.638 67.7379 104.818 66.8063C104.168 66.4812 103.41 66.4812 102.76 66.8063C100.94 67.7379 99.4451 70.1646 99.4451 72.2013V78.7013C99.4451 79.0913 99.1418 79.5463 98.7951 79.6979L86.7051 84.9196C85.3618 85.4613 84.2784 87.1296 84.2784 88.5812V91.3762C84.2784 93.1962 85.6434 94.0846 87.3118 93.3696L97.9501 88.7762C98.7734 88.4079 99.4668 88.8629 99.4668 89.7729V95.9479C99.4668 96.4463 99.1851 97.1396 98.8384 97.4862L93.9201 102.426C93.4001 102.946 93.1618 103.943 93.4001 104.658L94.3534 107.54C94.7434 108.796 96.1734 109.403 97.3651 108.796Z" stroke="white" stroke-width="1.5" stroke-linecap="round" stroke-linejoin="round"/>
<defs>
<filter id="filter0_d_2263_2506" x="4.95911e-05" y="0.000782013" width="207.6" height="207.6" filterUnits="userSpaceOnUse" color-interpolation-filters="sRGB">
<feFlood flood-opacity="0" result="BackgroundImageFix"/>
<feColorMatrix in="SourceAlpha" type="matrix" values="0 0 0 0 0 0 0 0 0 0 0 0 0 0 0 0 0 0 127 0" result="hardAlpha"/>
<feOffset/>
<feGaussianBlur stdDeviation="19.9"/>
<feComposite in2="hardAlpha" operator="out"/>
<feColorMatrix type="matrix" values="0 0 0 0 0.470588 0 0 0 0 0.329412 0 0 0 0 0.721569 0 0 0 0.6 0"/>
<feBlend mode="normal" in2="BackgroundImageFix" result="effect1_dropShadow_2263_2506"/>
<feBlend mode="normal" in="SourceGraphic" in2="effect1_dropShadow_2263_2506" result="shape"/>
</filter>
</defs>
</svg>
