<svg width="25" height="23" viewBox="0 0 25 23" fill="none" xmlns="http://www.w3.org/2000/svg">
<path d="M5.64526 5.09351C7.49083 -1.5618 16.9065 -1.56625 18.7546 5.09351H22.3621C23.4307 5.09351 24.2996 5.96337 24.2996 7.03198V20.3093C24.2996 21.378 23.4307 22.2468 22.3621 22.2468H2.03784C0.969181 22.2468 0.100342 21.378 0.100342 20.3093V7.03198C0.100342 5.96337 0.969183 5.09351 2.03784 5.09351H5.64526ZM1.25562 17.2742L1.79272 16.8689C2.04723 16.6764 2.4098 16.7267 2.60229 16.9812C2.79447 17.2357 2.74432 17.5984 2.48999 17.7908L1.25562 18.7234V20.3093C1.25562 20.7406 1.60657 21.0916 2.03784 21.0916H22.3621C22.7933 21.0916 23.1443 20.7406 23.1443 20.3093V18.7224L17.365 14.3533L13.6687 17.1492C13.2422 17.471 12.7349 17.6413 12.2019 17.6414H12.198C11.6655 17.6414 11.1575 17.471 10.7312 17.1492L7.03394 14.3533L5.91968 15.197C5.6673 15.3882 5.30362 15.3407 5.11011 15.0847C4.91769 14.8303 4.96808 14.4677 5.22241 14.2751L6.07495 13.6296L1.25562 9.98511V17.2742ZM18.324 13.6296L23.1443 17.2742V9.98511L18.324 13.6296ZM2.03784 6.24976C1.60661 6.24976 1.25562 6.60076 1.25562 7.03198V8.53589L11.4275 16.2273C11.6517 16.3965 11.918 16.486 12.198 16.4861H12.2009C12.4818 16.486 12.748 16.3967 12.9724 16.2273L23.1443 8.53589V7.03198C23.1443 6.60072 22.7933 6.24978 22.3621 6.24976H18.9607C19.334 10.1761 16.1619 13.6705 12.2 13.6462L12.199 13.6472V13.6462C8.23699 13.6698 5.0665 10.176 5.43921 6.24976H2.03784ZM12.2 1.22339C9.09371 1.22339 6.56626 3.75101 6.56616 6.85718C6.85169 14.3183 17.5472 14.3202 17.8337 6.85718L17.8259 6.56812C17.6748 3.59569 15.2093 1.22339 12.2 1.22339Z" fill="#292D32" stroke="#292D32" stroke-width="0.2"/>
<path d="M12.0805 9.12699C12.3444 9.12699 12.5583 8.91307 12.5583 8.64918V5.06561C12.5348 4.43232 11.6259 4.4328 11.6027 5.06561V8.64918C11.6027 8.91307 11.8166 9.12699 12.0805 9.12699Z" fill="#292D32"/>
<path d="M13.7528 9.12689C14.0167 9.12689 14.2306 8.91297 14.2306 8.64908V7.4545H14.7085C16.6079 7.38221 16.6065 4.65922 14.7085 4.58765H13.7528C13.4889 4.58765 13.275 4.80156 13.275 5.06546V8.64908C13.275 8.91297 13.489 9.12689 13.7528 9.12689ZM14.2306 5.54327H14.7085C15.3416 5.56735 15.3411 6.47499 14.7085 6.49889H14.2306V5.54327Z" fill="#292D32"/>
<path d="M8.33284 8.9059C8.42057 9.04365 8.57256 9.12703 8.73587 9.12703H10.4082C11.0415 9.10352 11.041 8.19468 10.4082 8.17141H9.48613L10.8412 5.26771C10.9936 4.96492 10.747 4.5778 10.4082 4.58784H8.73587C8.10258 4.61135 8.10306 5.52019 8.73587 5.54346H9.65795L8.30288 8.44715C8.23384 8.59518 8.24511 8.76815 8.33284 8.9059Z" fill="#292D32"/>
<path d="M3.85637 15.5549H3.85604C3.59214 15.5549 3.37842 15.7688 3.37842 16.0327C3.40188 16.6658 4.31086 16.6657 4.33418 16.0327C4.33418 15.7688 4.12027 15.5549 3.85637 15.5549Z" fill="#292D32"/>
</svg>
